<svg data-v-423bf9ae="" xmlns="http://www.w3.org/2000/svg" viewBox="0 0 1333 90" class="iconLeftSlogan"><!----><!----><!----><g data-v-423bf9ae="" id="8a1bd4fe-1dd7-4cba-8969-88051f594d70" fill="black" transform="matrix(5.830903811703725,0,0,5.830903811703725,107.7842779976553,-26.064141118497787)"><path d="M9.44 4.68L9.16 4.96C9.16 4.96 8.55 6.72 8.41 7.03L6.51 12.10L4.65 7.14C4.52 6.80 3.92 4.96 3.92 4.96L3.65 4.66L2.87 4.66C2.59 4.68 0.94 4.61 0.94 4.61L0.87 5.36L2.02 5.53C2.04 5.73 2.07 6.34 2.07 6.58L1.71 12.70C1.67 12.94 1.51 13.51 1.47 13.69L0.38 13.92L0.45 14.62C0.45 14.62 1.68 14.55 1.95 14.55C3.04 14.55 3.75 14.62 3.75 14.62L3.85 13.79L2.72 13.69C2.70 13.47 2.65 12.67 2.65 12.28L2.98 6.37L6.05 14.55L6.55 14.55L9.62 6.37L10.00 12.28C10.00 12.67 9.94 13.48 9.93 13.69L8.83 13.92L8.90 14.62C8.90 14.62 10.30 14.55 10.57 14.55C11.69 14.55 12.61 14.62 12.61 14.62L12.70 13.79L11.56 13.69C11.52 13.51 11.38 12.94 11.34 12.70L10.86 6.58C10.86 6.34 10.88 5.70 10.91 5.53L12.03 5.43L11.97 4.61C11.97 4.61 10.92 4.68 9.80 4.68ZM22.23 13.79L21.36 13.65L20.82 12.46L17.93 4.54L17.12 4.68L14.62 12.31L14.01 13.69L13.13 13.93L13.19 14.62C13.19 14.62 14.56 14.55 15.08 14.55L16.28 14.55L16.35 13.79L15.37 13.65L15.51 12.77L15.96 11.30L19.04 11.30L19.33 12.14L19.71 13.65L18.69 13.93L18.75 14.62C18.75 14.62 20.31 14.55 20.75 14.55L22.16 14.55ZM17.44 6.75L18.76 10.54L16.21 10.60ZM23.20 11.86L22.99 14.01C22.99 14.01 24.19 14.76 26.07 14.76C27.92 14.76 29.41 13.86 29.41 12.00C29.41 8.82 24.57 8.99 24.57 6.79C24.57 5.75 25.30 5.24 26.17 5.24C26.80 5.24 27.24 5.29 27.83 5.54C27.92 5.87 28.01 6.20 28.01 6.33L28.01 6.94L28.84 7.03L29.04 4.91C28.14 4.69 27.12 4.47 26.21 4.47C24.47 4.47 23.17 5.38 23.17 7.06C23.17 10.08 27.94 9.87 27.94 12.17C27.94 13.30 27.22 13.92 26.10 13.92C25.41 13.92 24.77 13.73 24.28 13.54C24.21 13.23 24.12 12.78 24.12 12.61L24.12 11.94ZM39.35 13.79L38.49 13.65L37.94 12.46L35.06 4.54L34.24 4.68L31.74 12.31L31.14 13.69L30.25 13.93L30.31 14.62C30.31 14.62 31.68 14.55 32.20 14.55L33.40 14.55L33.47 13.79L32.49 13.65L32.63 12.77L33.08 11.30L36.16 11.30L36.46 12.14L36.83 13.65L35.81 13.93L35.87 14.62C35.87 14.62 37.44 14.55 37.87 14.55L39.28 14.55ZM34.57 6.75L35.88 10.54L33.33 10.60ZM49.78 4.61C49.78 4.61 48.71 4.68 47.60 4.68L46.45 4.65L46.37 5.49L47.47 5.57C47.52 5.82 47.60 6.51 47.60 6.73L47.60 12.26L43.93 7.13C43.72 6.82 42.57 4.96 42.57 4.96L42.29 4.66L41.68 4.68C41.40 4.68 40.05 4.61 40.05 4.61L39.98 5.36L41.10 5.53C41.13 5.74 41.23 6.37 41.23 6.59L41.23 12.63C41.23 12.87 41.13 13.51 41.10 13.69L40.00 13.92L40.07 14.62C40.07 14.62 41.30 14.55 41.58 14.55C42.70 14.55 43.30 14.62 43.30 14.62L43.40 13.79L42.27 13.69C42.24 13.50 42.17 12.80 42.17 12.21L42.17 6.76L47.68 14.64L48.52 14.64C48.52 14.64 48.54 10.95 48.54 10.39L48.54 7.15C48.54 6.59 48.69 5.84 48.75 5.57L49.85 5.35ZM61.17 12.17L60.34 12.19C60.34 12.19 60.34 12.71 60.31 12.85C60.31 12.99 60.21 13.31 60.12 13.64C59.53 13.82 58.79 13.94 58.21 13.94C56.21 13.94 55.23 12.03 55.23 9.60C55.23 7.18 56.21 5.28 58.23 5.28C58.76 5.28 59.44 5.42 59.99 5.60C60.07 5.88 60.16 6.17 60.16 6.30L60.16 6.96L60.98 7.01L61.12 4.94C60.24 4.72 59.37 4.47 58.23 4.47C55.29 4.47 53.79 6.57 53.79 9.62C53.79 12.67 55.29 14.76 58.23 14.76C59.36 14.76 60.37 14.50 61.25 14.28ZM71.09 9.62C71.09 6.57 69.54 4.47 66.50 4.47C63.46 4.47 61.91 6.57 61.91 9.62C61.91 12.66 63.46 14.76 66.50 14.76C69.54 14.76 71.09 12.66 71.09 9.62ZM63.41 9.62C63.41 7.17 64.41 5.21 66.50 5.21C68.59 5.21 69.59 7.17 69.59 9.62C69.59 12.05 68.59 14.01 66.50 14.01C64.41 14.01 63.41 12.05 63.41 9.62ZM82.05 4.61C82.05 4.61 80.98 4.68 79.87 4.68L78.72 4.65L78.64 5.49L79.74 5.57C79.79 5.82 79.87 6.51 79.87 6.73L79.87 12.26L76.20 7.13C75.99 6.82 74.84 4.96 74.84 4.96L74.56 4.66L73.95 4.68C73.67 4.68 72.32 4.61 72.32 4.61L72.25 5.36L73.37 5.53C73.40 5.74 73.50 6.37 73.50 6.59L73.50 12.63C73.50 12.87 73.40 13.51 73.37 13.69L72.27 13.92L72.34 14.62C72.34 14.62 73.57 14.55 73.85 14.55C74.97 14.55 75.57 14.62 75.57 14.62L75.67 13.79L74.54 13.69C74.51 13.50 74.44 12.80 74.44 12.21L74.44 6.76L79.95 14.64L80.79 14.64C80.79 14.64 80.81 10.95 80.81 10.39L80.81 7.15C80.81 6.59 80.96 5.84 81.02 5.57L82.12 5.35ZM83.24 11.86L83.03 14.01C83.03 14.01 84.24 14.76 86.11 14.76C87.96 14.76 89.46 13.86 89.46 12.00C89.46 8.82 84.62 8.99 84.62 6.79C84.62 5.75 85.34 5.24 86.21 5.24C86.84 5.24 87.29 5.29 87.88 5.54C87.96 5.87 88.06 6.20 88.06 6.33L88.06 6.94L88.89 7.03L89.08 4.91C88.19 4.69 87.16 4.47 86.25 4.47C84.52 4.47 83.22 5.38 83.22 7.06C83.22 10.08 87.99 9.87 87.99 12.17C87.99 13.30 87.26 13.92 86.14 13.92C85.46 13.92 84.81 13.73 84.32 13.54C84.25 13.23 84.17 12.78 84.17 12.61L84.17 11.94ZM98.35 6.80L98.25 4.79L97.99 4.54C97.99 4.54 96.67 4.68 96.39 4.68L92.26 4.68C91.98 4.68 90.66 4.54 90.66 4.54L90.40 4.79L90.30 6.80L91.11 6.87C91.14 6.65 91.21 6.22 91.27 6.01C91.28 5.91 91.41 5.71 91.55 5.53C91.85 5.50 92.29 5.46 92.68 5.46L93.56 5.46C93.59 5.73 93.69 6.38 93.69 6.59L93.69 12.63C93.69 12.87 93.59 13.51 93.56 13.69L92.46 13.92L92.53 14.62C92.53 14.62 93.90 14.55 94.18 14.55C95.30 14.55 96.22 14.62 96.22 14.62L96.32 13.79L95.06 13.69C95.03 13.50 94.96 12.80 94.96 12.21L94.96 7.01C94.96 6.48 95.03 5.74 95.06 5.46L95.97 5.46C96.36 5.46 96.80 5.50 97.10 5.53C97.24 5.71 97.37 5.91 97.38 6.01C97.44 6.22 97.51 6.65 97.54 6.87ZM103.14 4.54C102.49 4.54 101.33 4.65 100.58 4.68C100.11 4.65 99.18 4.61 99.18 4.61L99.11 5.36L100.18 5.53C100.21 5.73 100.31 6.37 100.31 6.59L100.31 12.63C100.31 12.87 100.21 13.51 100.18 13.69L99.08 13.92L99.15 14.62C99.15 14.62 100.52 14.55 100.80 14.55C101.92 14.55 102.84 14.62 102.84 14.62L102.94 13.79L101.68 13.69C101.65 13.50 101.58 12.80 101.58 12.21L101.58 10.32C101.96 10.33 102.41 10.33 102.82 10.33L102.91 10.33L104.29 12.92C104.47 13.26 105.06 14.55 105.06 14.55C106.18 14.55 107.27 14.62 107.27 14.62L107.37 13.79L106.36 13.69C106.13 13.38 105.80 12.92 105.67 12.71C105.59 12.60 104.87 11.44 104.19 10.12C105.38 9.73 106.23 8.81 106.23 7.43C106.23 5.50 105.06 4.54 103.14 4.54ZM102.55 5.24C103.99 5.24 104.92 5.98 104.92 7.45C104.92 8.92 103.98 9.63 102.54 9.63C102.28 9.63 101.93 9.60 101.58 9.58L101.58 7.01C101.58 6.40 101.64 5.67 101.70 5.32C102.05 5.28 102.38 5.24 102.55 5.24ZM117.39 4.61C117.39 4.61 116.68 4.68 115.56 4.68C115.28 4.68 114.07 4.61 114.07 4.61L114.00 5.36L115.09 5.53C115.12 5.73 115.23 6.43 115.23 6.66L115.23 10.82C115.23 12.59 114.42 13.86 112.74 13.86C111.13 13.86 110.33 12.60 110.33 10.82L110.33 7.08C110.33 6.48 110.40 5.74 110.43 5.53L111.54 5.43L111.48 4.61C111.48 4.61 110.59 4.68 109.47 4.68C109.19 4.68 107.84 4.61 107.84 4.61L107.77 5.36L108.88 5.53C108.91 5.74 109.00 6.43 109.00 6.66L109.00 10.82C109.00 13.22 110.22 14.76 112.62 14.76C115.01 14.76 116.24 13.22 116.24 10.82L116.24 7.08C116.24 6.48 116.31 5.74 116.34 5.53L117.45 5.43ZM125.68 12.17L124.85 12.19C124.85 12.19 124.85 12.71 124.82 12.85C124.82 12.99 124.73 13.31 124.63 13.64C124.04 13.82 123.30 13.94 122.72 13.94C120.72 13.94 119.74 12.03 119.74 9.60C119.74 7.18 120.72 5.28 122.74 5.28C123.27 5.28 123.96 5.42 124.50 5.60C124.59 5.88 124.67 6.17 124.67 6.30L124.67 6.96L125.50 7.01L125.64 4.94C124.75 4.72 123.89 4.47 122.74 4.47C119.80 4.47 118.30 6.57 118.30 9.62C118.30 12.67 119.80 14.76 122.74 14.76C123.87 14.76 124.88 14.50 125.76 14.28ZM134.44 6.80L134.34 4.79L134.08 4.54C134.08 4.54 132.76 4.68 132.48 4.68L128.35 4.68C128.07 4.68 126.76 4.54 126.76 4.54L126.49 4.79L126.39 6.80L127.20 6.87C127.23 6.65 127.30 6.22 127.36 6.01C127.37 5.91 127.50 5.71 127.64 5.53C127.95 5.50 128.38 5.46 128.77 5.46L129.65 5.46C129.68 5.73 129.78 6.38 129.78 6.59L129.78 12.63C129.78 12.87 129.68 13.51 129.65 13.69L128.55 13.92L128.62 14.62C128.62 14.62 129.99 14.55 130.27 14.55C131.39 14.55 132.31 14.62 132.31 14.62L132.41 13.79L131.15 13.69C131.12 13.50 131.05 12.80 131.05 12.21L131.05 7.01C131.05 6.48 131.12 5.74 131.15 5.46L132.06 5.46C132.45 5.46 132.89 5.50 133.20 5.53C133.34 5.71 133.46 5.91 133.48 6.01C133.53 6.22 133.60 6.65 133.63 6.87ZM138.89 4.61C138.89 4.61 138.10 4.68 136.98 4.68C136.70 4.68 135.35 4.61 135.35 4.61L135.28 5.36L136.36 5.53C136.39 5.71 136.49 6.36 136.49 6.59L136.49 12.63C136.49 12.87 136.39 13.51 136.36 13.69L135.25 13.92L135.32 14.62C135.32 14.62 136.70 14.55 136.98 14.55C138.10 14.55 139.02 14.62 139.02 14.62L139.12 13.79L137.86 13.69C137.83 13.50 137.76 12.80 137.76 12.21L137.76 7.01C137.76 6.43 137.83 5.73 137.86 5.53L138.95 5.43ZM149.44 9.62C149.44 6.57 147.88 4.47 144.84 4.47C141.81 4.47 140.25 6.57 140.25 9.62C140.25 12.66 141.81 14.76 144.84 14.76C147.88 14.76 149.44 12.66 149.44 9.62ZM141.75 9.62C141.75 7.17 142.76 5.21 144.84 5.21C146.93 5.21 147.94 7.17 147.94 9.62C147.94 12.05 146.93 14.01 144.84 14.01C142.76 14.01 141.75 12.05 141.75 9.62ZM160.40 4.61C160.40 4.61 159.32 4.68 158.21 4.68L157.07 4.65L156.98 5.49L158.09 5.57C158.13 5.82 158.21 6.51 158.21 6.73L158.21 12.26L154.55 7.13C154.34 6.82 153.19 4.96 153.19 4.96L152.91 4.66L152.29 4.68C152.01 4.68 150.67 4.61 150.67 4.61L150.60 5.36L151.72 5.53C151.75 5.74 151.84 6.37 151.84 6.59L151.84 12.63C151.84 12.87 151.75 13.51 151.72 13.69L150.61 13.92L150.68 14.62C150.68 14.62 151.91 14.55 152.19 14.55C153.31 14.55 153.92 14.62 153.92 14.62L154.01 13.79L152.88 13.69C152.85 13.50 152.78 12.80 152.78 12.21L152.78 6.76L158.30 14.64L159.14 14.64C159.14 14.64 159.15 10.95 159.15 10.39L159.15 7.15C159.15 6.59 159.31 5.84 159.36 5.57L160.47 5.35ZM171.78 12.17L170.95 12.19C170.95 12.19 170.95 12.71 170.93 12.85C170.93 12.99 170.83 13.31 170.73 13.64C170.14 13.82 169.40 13.94 168.83 13.94C166.82 13.94 165.84 12.03 165.84 9.60C165.84 7.18 166.82 5.28 168.84 5.28C169.37 5.28 170.06 5.42 170.60 5.60C170.69 5.88 170.77 6.17 170.77 6.30L170.77 6.96L171.60 7.01L171.74 4.94C170.86 4.72 169.99 4.47 168.84 4.47C165.90 4.47 164.40 6.57 164.40 9.62C164.40 12.67 165.90 14.76 168.84 14.76C169.97 14.76 170.98 14.50 171.86 14.28ZM181.71 9.62C181.71 6.57 180.15 4.47 177.11 4.47C174.08 4.47 172.52 6.57 172.52 9.62C172.52 12.66 174.08 14.76 177.11 14.76C180.15 14.76 181.71 12.66 181.71 9.62ZM174.02 9.62C174.02 7.17 175.03 5.21 177.11 5.21C179.20 5.21 180.21 7.17 180.21 9.62C180.21 12.05 179.20 14.01 177.11 14.01C175.03 14.01 174.02 12.05 174.02 9.62ZM189.66 4.61C189.66 4.61 188.86 4.68 187.74 4.68C187.46 4.68 186.12 4.61 186.12 4.61L186.05 5.36L187.12 5.53C187.15 5.71 187.25 6.36 187.25 6.59L187.25 12.63C187.25 12.87 187.15 13.51 187.12 13.69L186.02 13.92L186.09 14.62C186.09 14.62 187.46 14.55 187.74 14.55L190.69 14.55C190.97 14.55 192.29 14.60 192.29 14.60L192.56 14.35L192.77 12.24L192.00 12.17C191.97 12.39 191.84 12.89 191.79 13.10C191.77 13.20 191.63 13.43 191.49 13.62C191.18 13.68 190.71 13.75 190.27 13.75L188.62 13.75C188.59 13.54 188.52 12.78 188.52 12.21L188.52 7.01C188.52 6.43 188.59 5.73 188.62 5.53L189.71 5.43ZM200.40 6.80L200.30 4.79L200.03 4.54C200.03 4.54 198.72 4.68 198.44 4.68L194.31 4.68C194.03 4.68 192.71 4.54 192.71 4.54L192.44 4.79L192.35 6.80L193.16 6.87C193.19 6.65 193.26 6.22 193.31 6.01C193.33 5.91 193.45 5.71 193.59 5.53C193.90 5.50 194.33 5.46 194.73 5.46L195.61 5.46C195.64 5.73 195.73 6.38 195.73 6.59L195.73 12.63C195.73 12.87 195.64 13.51 195.61 13.69L194.50 13.92L194.57 14.62C194.57 14.62 195.94 14.55 196.22 14.55C197.34 14.55 198.27 14.62 198.27 14.62L198.37 13.79L197.11 13.69C197.08 13.50 197.01 12.80 197.01 12.21L197.01 7.01C197.01 6.48 197.08 5.74 197.11 5.46L198.02 5.46C198.41 5.46 198.84 5.50 199.15 5.53C199.29 5.71 199.42 5.91 199.43 6.01C199.49 6.22 199.56 6.65 199.58 6.87ZM205.21 4.54C204.29 4.54 203.49 4.65 202.59 4.68C202.12 4.65 201.22 4.61 201.22 4.61L201.15 5.36L202.23 5.53C202.26 5.71 202.36 6.36 202.36 6.59L202.36 12.63C202.36 12.87 202.26 13.51 202.23 13.69L201.12 13.92L201.19 14.62C201.19 14.62 202.55 14.55 202.85 14.55C203.69 14.55 204.65 14.63 205.21 14.63C208.24 14.63 210.04 12.60 210.04 9.62C210.04 6.50 208.33 4.54 205.21 4.54ZM205.23 5.38C207.56 5.38 208.66 7.28 208.66 9.62C208.66 11.93 207.56 13.80 205.23 13.80C204.61 13.80 204.09 13.78 203.73 13.75C203.71 13.69 203.63 12.88 203.63 12.21L203.63 7.01C203.63 6.45 203.70 5.71 203.73 5.45C204.08 5.40 204.58 5.38 205.23 5.38Z"></path></g><!----><g data-v-423bf9ae="" id="e3bf0a4b-39a8-421d-acb9-0101b6fd7a1d" transform="matrix(2.8125,0,0,2.8125,0,0)" stroke="none" fill="black"><path d="M11.579 32H32L21.789 14.314z"></path><circle cx="8.683" cy="8.683" r="8.683"></circle></g><!----><g data-v-423bf9ae="" id="13a6b676-ef67-4f9c-924d-66c1d4dd6539" fill="black" transform="matrix(8.42745157014737,0,0,8.42745157014737,107.64030083687419,31.093840093652076)"><path d="M0.28 3.70L0.28 3.70L0.28 3.70Q0.28 3.47 0.69 3.47L0.69 3.47L3.01 3.47L3.01 3.47Q3.33 3.47 3.75 3.45L3.75 3.45L3.75 3.45Q4.17 3.43 4.41 3.43L4.41 3.43L4.41 3.43Q5.67 3.43 6.57 4.07L6.57 4.07L6.57 4.07Q7.46 4.70 7.46 5.78L7.46 5.78L7.46 5.78Q7.46 6.50 7.19 7.03L7.19 7.03L7.19 7.03Q6.92 7.57 6.59 7.81L6.59 7.81L6.59 7.81Q6.26 8.05 5.99 8.22L5.99 8.22L5.99 8.22Q5.71 8.40 5.71 8.46L5.71 8.46L5.71 8.46Q5.71 8.62 6.89 10.27L6.89 10.27L6.89 10.27Q8.06 11.91 8.50 12.38L8.50 12.38L8.50 12.38Q9.03 13.03 9.79 13.03L9.79 13.03L9.79 13.03Q9.98 13.03 9.98 13.20L9.98 13.20L9.98 13.20Q9.98 13.41 9.81 13.48L9.81 13.48L9.81 13.48Q9.65 13.55 8.95 13.55L8.95 13.55L8.95 13.55Q8.29 13.55 7.74 13.23L7.74 13.23L7.74 13.23Q7.04 12.82 5.38 10.09L5.38 10.09L5.38 10.09Q5.28 9.94 5.24 9.87L5.24 9.87L5.24 9.87Q4.56 8.78 4.20 8.78L4.20 8.78L3.91 8.78L3.05 8.78L3.05 8.78Q2.88 8.78 2.85 8.92L2.85 8.92L2.85 8.92Q2.81 9.06 2.81 9.77L2.81 9.77L2.81 9.77Q2.81 10.44 2.81 10.88L2.81 10.88L2.81 10.88Q2.81 11.31 2.82 11.43L2.82 11.43L2.82 11.43Q2.83 11.55 2.83 11.63L2.83 11.63L2.83 11.63Q2.83 11.70 2.83 11.75L2.83 11.75L2.83 11.75Q2.83 12.32 3.09 12.63L3.09 12.63L3.09 12.63Q3.36 12.95 3.69 13.00L3.69 13.00L3.69 13.00Q4.02 13.05 4.28 13.11L4.28 13.11L4.28 13.11Q4.55 13.17 4.55 13.31L4.55 13.31L4.55 13.31Q4.55 13.54 4.30 13.54L4.30 13.54L4.30 13.54Q4.28 13.54 3.33 13.49L3.33 13.49L3.33 13.49Q2.38 13.44 2.30 13.44L2.30 13.44L2.30 13.44Q1.89 13.44 1.33 13.47L1.33 13.47L1.33 13.47Q0.77 13.50 0.76 13.50L0.76 13.50L0.76 13.50Q0.46 13.50 0.46 13.27L0.46 13.27L0.46 13.27Q0.46 13.12 0.64 13.05L0.64 13.05L0.64 13.05Q0.83 12.99 1.05 12.96L1.05 12.96L1.05 12.96Q1.27 12.94 1.46 12.66L1.46 12.66L1.46 12.66Q1.64 12.38 1.64 11.86L1.64 11.86L1.64 11.86Q1.64 11.49 1.65 9.90L1.65 9.90L1.65 9.90Q1.65 8.30 1.65 7.45L1.65 7.45L1.65 7.45Q1.65 6.58 1.65 5.86L1.65 5.86L1.65 5.86Q1.64 5.14 1.64 5.08L1.64 5.08L1.64 5.08Q1.64 4.56 1.43 4.29L1.43 4.29L1.43 4.29Q1.22 4.02 0.96 3.98L0.96 3.98L0.96 3.98Q0.70 3.95 0.49 3.89L0.49 3.89L0.49 3.89Q0.28 3.84 0.28 3.70ZM2.81 5.54L2.81 5.94L2.81 5.94Q2.81 7.38 2.83 7.72L2.83 7.72L2.83 7.72Q2.84 8.06 2.93 8.12L2.93 8.12L2.93 8.12Q3.14 8.25 3.53 8.25L3.53 8.25L3.67 8.25L4.07 8.25L4.07 8.25Q5.26 8.25 5.78 7.70L5.78 7.70L5.78 7.70Q6.29 7.15 6.29 6.30L6.29 6.30L6.29 6.30Q6.29 5.43 5.61 4.72L5.61 4.72L5.61 4.72Q4.93 4.00 3.56 4.00L3.56 4.00L3.56 4.00Q3.04 4.00 2.93 4.28L2.93 4.28L2.93 4.28Q2.81 4.55 2.81 5.54L2.81 5.54ZM17.26 8.90L17.26 8.90L17.26 8.90Q17.26 7.38 17.85 6.16L17.85 6.16L17.85 6.16Q18.44 4.94 19.66 4.19L19.66 4.19L19.66 4.19Q20.89 3.44 22.57 3.44L22.57 3.44L22.57 3.44Q23.42 3.44 24.29 3.70L24.29 3.70L24.29 3.70Q25.16 3.95 25.68 4.20L25.68 4.20L26.19 4.47L26.19 4.47Q26.24 4.47 26.33 4.40L26.33 4.40L26.33 4.40Q26.43 4.33 26.49 4.33L26.49 4.33L26.49 4.33Q26.56 4.33 26.63 4.38L26.63 4.38L26.63 4.38Q26.70 4.44 26.70 4.55L26.70 4.55L26.70 4.55Q26.71 4.96 26.76 5.41L26.76 5.41L26.76 5.41Q26.81 5.87 26.85 6.16L26.85 6.16L26.85 6.16Q26.89 6.45 26.89 6.51L26.89 6.51L26.89 6.51Q26.89 6.76 26.73 6.76L26.73 6.76L26.73 6.76Q26.60 6.76 26.49 6.57L26.49 6.57L26.49 6.57Q25.13 4.02 22.57 4.02L22.57 4.02L22.57 4.02Q20.82 4.02 19.70 5.14L19.70 5.14L19.70 5.14Q18.58 6.26 18.58 8.06L18.58 8.06L18.58 8.06Q18.58 9.06 18.84 9.93L18.84 9.93L18.84 9.93Q19.10 10.79 19.62 11.51L19.62 11.51L19.62 11.51Q20.15 12.24 21.07 12.66L21.07 12.66L21.07 12.66Q21.99 13.08 23.23 13.08L23.23 13.08L23.23 13.08Q25.24 13.08 26.61 10.98L26.61 10.98L26.61 10.98Q26.67 10.88 26.82 10.88L26.82 10.88L26.82 10.88Q26.95 10.88 26.95 11.07L26.95 11.07L26.95 11.07Q26.95 11.23 26.90 11.49L26.90 11.49L26.90 11.49Q26.85 11.75 26.78 12.06L26.78 12.06L26.78 12.06Q26.71 12.38 26.70 12.45L26.70 12.45L26.70 12.45Q26.67 12.60 26.47 12.70L26.47 12.70L26.47 12.70Q25.72 13.06 25.29 13.24L25.29 13.24L25.29 13.24Q24.86 13.43 24.21 13.57L24.21 13.57L24.21 13.57Q23.55 13.72 22.86 13.72L22.86 13.72L22.86 13.72Q21.64 13.72 20.66 13.43L20.66 13.43L20.66 13.43Q19.68 13.13 19.06 12.66L19.06 12.66L19.06 12.66Q18.44 12.18 18.02 11.54L18.02 11.54L18.02 11.54Q17.60 10.91 17.43 10.25L17.43 10.25L17.43 10.25Q17.26 9.60 17.26 8.90ZM35.56 12.67L35.56 12.67L35.56 12.67Q35.56 12.56 36.05 12.12L36.05 12.12L36.05 12.12Q36.09 12.08 36.21 11.94L36.21 11.94L36.21 11.94Q36.33 11.80 36.42 11.73L36.42 11.73L36.42 11.73Q36.51 11.66 36.64 11.66L36.64 11.66L36.64 11.66Q36.67 11.66 36.71 11.69L36.71 11.69L36.71 11.69Q36.75 11.72 36.80 11.77L36.80 11.77L36.80 11.77Q36.85 11.83 36.90 11.88L36.90 11.88L36.90 11.88Q36.95 11.93 37.02 12.03L37.02 12.03L37.02 12.03Q37.09 12.12 37.14 12.18L37.14 12.18L37.14 12.18Q37.18 12.22 37.30 12.33L37.30 12.33L37.30 12.33Q37.42 12.43 37.49 12.52L37.49 12.52L37.49 12.52Q37.56 12.61 37.56 12.67L37.56 12.67L37.56 12.67Q37.56 12.74 37.49 12.82L37.49 12.82L37.49 12.82Q37.42 12.89 37.28 13.01L37.28 13.01L37.28 13.01Q37.14 13.12 37.07 13.17L37.07 13.17L37.07 13.17Q37.02 13.23 36.92 13.37L36.92 13.37L36.92 13.37Q36.82 13.51 36.73 13.59L36.73 13.59L36.73 13.59Q36.64 13.66 36.55 13.66L36.55 13.66L36.55 13.66Q36.46 13.66 36.36 13.57L36.36 13.57L36.36 13.57Q36.26 13.47 36.16 13.33L36.16 13.33L36.16 13.33Q36.05 13.20 35.98 13.15L35.98 13.15L35.98 13.15Q35.56 12.85 35.56 12.67ZM35.66 8.74L35.66 8.74L35.66 8.74Q35.66 8.58 36.08 8.22L36.08 8.22L36.08 8.22Q36.13 8.16 36.23 8.04L36.23 8.04L36.23 8.04Q36.32 7.91 36.41 7.83L36.41 7.83L36.41 7.83Q36.50 7.76 36.61 7.76L36.61 7.76L36.61 7.76Q36.72 7.76 37.11 8.27L37.11 8.27L37.11 8.27Q37.14 8.32 37.25 8.41L37.25 8.41L37.25 8.41Q37.35 8.50 37.41 8.58L37.41 8.58L37.41 8.58Q37.48 8.67 37.48 8.75L37.48 8.75L37.48 8.75Q37.48 8.81 37.44 8.87L37.44 8.87L37.44 8.87Q37.39 8.93 37.34 8.97L37.34 8.97L37.34 8.97Q37.30 9.02 37.20 9.10L37.20 9.10L37.20 9.10Q37.10 9.18 37.06 9.23L37.06 9.23L37.06 9.23Q37.00 9.28 36.91 9.41L36.91 9.41L36.91 9.41Q36.82 9.53 36.74 9.61L36.74 9.61L36.74 9.61Q36.65 9.69 36.55 9.69L36.55 9.69L36.55 9.69Q36.46 9.69 36.37 9.60L36.37 9.60L36.37 9.60Q36.27 9.51 36.20 9.37L36.20 9.37L36.20 9.37Q36.12 9.24 36.08 9.20L36.08 9.20L36.08 9.20Q36.02 9.14 35.93 9.06L35.93 9.06L35.93 9.06Q35.84 8.99 35.79 8.94L35.79 8.94L35.79 8.94Q35.74 8.89 35.70 8.83L35.70 8.83L35.70 8.83Q35.66 8.78 35.66 8.74ZM45.93 15.51L45.92 15.34L45.92 15.34Q45.92 14.90 46.17 14.90L46.17 14.90L46.17 14.90Q46.23 14.90 46.38 15.08L46.38 15.08L46.38 15.08Q46.54 15.26 46.86 15.43L46.86 15.43L46.86 15.43Q47.18 15.61 47.64 15.61L47.64 15.61L47.64 15.61Q48.47 15.61 49.03 14.93L49.03 14.93L49.03 14.93Q49.59 14.25 49.59 13.50L49.59 13.50L49.59 13.50Q49.59 12.82 49.01 12.38L49.01 12.38L49.01 12.38Q48.44 11.93 47.52 11.93L47.52 11.93L47.52 11.93Q47.39 11.93 47.24 11.94L47.24 11.94L47.24 11.94Q47.08 11.96 46.98 11.98L46.98 11.98L46.98 11.98Q46.89 12.00 46.87 12.00L46.87 12.00L46.87 12.00Q46.69 12.00 46.69 11.84L46.69 11.84L46.69 11.84Q46.69 11.77 46.70 11.75L46.70 11.75L46.70 11.75Q46.72 11.72 46.80 11.68L46.80 11.68L46.80 11.68Q46.87 11.63 46.98 11.58L46.98 11.58L46.98 11.58Q47.08 11.54 47.31 11.40L47.31 11.40L47.31 11.40Q47.53 11.26 47.80 11.07L47.80 11.07L47.80 11.07Q48.20 10.78 48.54 10.32L48.54 10.32L48.54 10.32Q48.87 9.86 48.87 9.30L48.87 9.30L48.87 9.30Q48.87 8.86 48.49 8.52L48.49 8.52L48.49 8.52Q48.10 8.18 47.59 8.18L47.59 8.18L47.59 8.18Q47.14 8.18 46.85 8.40L46.85 8.40L46.85 8.40Q46.56 8.62 46.48 8.62L46.48 8.62L46.48 8.62Q46.33 8.62 46.33 8.48L46.33 8.48L46.33 8.48Q46.33 8.25 46.89 7.87L46.89 7.87L46.89 7.87Q47.45 7.50 48.06 7.50L48.06 7.50L48.06 7.50Q48.78 7.50 49.33 7.80L49.33 7.80L49.33 7.80Q49.88 8.11 49.88 8.81L49.88 8.81L49.88 8.81Q49.88 9.21 49.64 9.63L49.64 9.63L49.64 9.63Q49.39 10.04 49.11 10.30L49.11 10.30L49.11 10.30Q48.82 10.57 48.57 10.78L48.57 10.78L48.57 10.78Q48.33 10.99 48.33 11.05L48.33 11.05L48.33 11.05Q48.33 11.06 48.48 11.08L48.48 11.08L48.48 11.08Q48.62 11.10 48.89 11.16L48.89 11.16L48.89 11.16Q49.15 11.23 49.38 11.34L49.38 11.34L49.38 11.34Q50.39 11.84 50.39 12.85L50.39 12.85L50.39 12.85Q50.39 14.01 49.39 15.15L49.39 15.15L49.39 15.15Q48.40 16.30 47.12 16.30L47.12 16.30L47.12 16.30Q45.93 16.30 45.93 15.79L45.93 15.79L45.93 15.79Q45.93 15.68 45.93 15.51L45.93 15.51ZM58.17 13.24L58.17 13.24L58.17 13.24Q58.17 13.10 58.29 12.95L58.29 12.95L58.29 12.95Q58.41 12.80 59.07 12.08L59.07 12.08L59.07 12.08Q60.73 10.28 62.51 8.27L62.51 8.27L62.51 8.27Q62.54 8.23 62.63 8.13L62.63 8.13L62.63 8.13Q62.72 8.02 62.78 7.94L62.78 7.94L62.78 7.94Q62.85 7.87 62.94 7.78L62.94 7.78L62.94 7.78Q63.03 7.70 63.10 7.65L63.10 7.65L63.10 7.65Q63.17 7.60 63.22 7.60L63.22 7.60L63.22 7.60Q63.38 7.60 63.38 7.94L63.38 7.94L63.38 7.94Q63.38 7.95 63.34 8.91L63.34 8.91L63.34 8.91Q63.29 9.87 63.25 10.94L63.25 10.94L63.25 10.94Q63.20 12.01 63.20 12.31L63.20 12.31L63.20 12.31Q63.20 12.50 63.45 12.50L63.45 12.50L63.45 12.50Q63.78 12.50 63.99 12.45L63.99 12.45L63.99 12.45Q64.20 12.40 64.26 12.34L64.26 12.34L64.26 12.34Q64.32 12.28 64.37 12.23L64.37 12.23L64.37 12.23Q64.43 12.18 64.50 12.18L64.50 12.18L64.50 12.18Q64.68 12.18 64.68 12.36L64.68 12.36L64.68 12.36Q64.68 12.45 64.64 12.56L64.64 12.56L64.64 12.56Q64.61 12.67 64.54 12.83L64.54 12.83L64.54 12.83Q64.47 12.99 64.44 13.06L64.44 13.06L64.44 13.06Q64.43 13.09 64.40 13.17L64.40 13.17L64.40 13.17Q64.37 13.24 64.35 13.29L64.35 13.29L64.35 13.29Q64.33 13.34 64.30 13.40L64.30 13.40L64.30 13.40Q64.26 13.45 64.22 13.48L64.22 13.48L64.22 13.48Q64.18 13.51 64.12 13.51L64.12 13.51L64.12 13.51Q64.01 13.51 63.73 13.50L63.73 13.50L63.73 13.50Q63.45 13.50 63.35 13.50L63.35 13.50L63.35 13.50Q63.22 13.50 63.19 13.55L63.19 13.55L63.19 13.55Q63.15 13.61 63.15 13.76L63.15 13.76L63.15 13.76Q63.15 13.97 63.18 14.50L63.18 14.50L63.18 14.50Q63.20 15.02 63.20 15.25L63.20 15.25L63.20 15.25Q63.20 15.27 63.20 15.40L63.20 15.40L63.20 15.40Q63.21 15.53 63.21 15.61L63.21 15.61L63.21 15.61Q63.21 15.88 62.99 15.95L62.99 15.95L62.99 15.95Q62.62 16.04 62.37 16.04L62.37 16.04L62.37 16.04Q62.10 16.04 62.10 15.85L62.10 15.85L62.10 15.85Q62.10 15.79 62.13 15.71L62.13 15.71L62.13 15.71Q62.15 15.64 62.16 15.50L62.16 15.50L62.16 15.50Q62.17 15.37 62.20 14.90L62.20 14.90L62.20 14.90Q62.22 14.42 62.22 13.66L62.22 13.66L62.22 13.66Q62.22 13.44 62.09 13.44L62.09 13.44L62.09 13.44Q61.92 13.44 61.21 13.45L61.21 13.45L61.21 13.45Q60.49 13.47 60.00 13.47L60.00 13.47L60.00 13.47Q59.70 13.47 59.23 13.46L59.23 13.46L59.23 13.46Q58.76 13.45 58.56 13.45L58.56 13.45L58.56 13.45Q58.39 13.45 58.33 13.45L58.33 13.45L58.33 13.45Q58.27 13.44 58.22 13.39L58.22 13.39L58.22 13.39Q58.17 13.34 58.17 13.24ZM59.47 12.38L59.47 12.38L59.47 12.38Q59.47 12.54 60.00 12.54L60.00 12.54L60.52 12.54L60.52 12.54Q60.68 12.54 61.06 12.55L61.06 12.55L61.06 12.55Q61.45 12.56 61.63 12.56L61.63 12.56L61.63 12.56Q62.01 12.56 62.13 12.54L62.13 12.54L62.13 12.54Q62.26 12.52 62.26 12.42L62.26 12.42L62.26 12.42Q62.30 10.43 62.30 9.63L62.30 9.63L62.30 9.63Q62.30 9.30 62.23 9.30L62.23 9.30L62.23 9.30Q62.16 9.30 61.77 9.71L61.77 9.71L61.77 9.71Q61.38 10.12 61.24 10.29L61.24 10.29L61.24 10.29Q60.97 10.63 60.50 11.14L60.50 11.14L60.50 11.14Q60.03 11.65 59.75 11.98L59.75 11.98L59.75 11.98Q59.47 12.31 59.47 12.38ZM72.65 15.51L72.63 15.34L72.63 15.34Q72.63 14.90 72.88 14.90L72.88 14.90L72.88 14.90Q72.94 14.90 73.09 15.08L73.09 15.08L73.09 15.08Q73.25 15.26 73.57 15.43L73.57 15.43L73.57 15.43Q73.89 15.61 74.35 15.61L74.35 15.61L74.35 15.61Q75.18 15.61 75.74 14.93L75.74 14.93L75.74 14.93Q76.30 14.25 76.30 13.50L76.30 13.50L76.30 13.50Q76.30 12.82 75.73 12.38L75.73 12.38L75.73 12.38Q75.15 11.93 74.23 11.93L74.23 11.93L74.23 11.93Q74.10 11.93 73.95 11.94L73.95 11.94L73.95 11.94Q73.79 11.96 73.70 11.98L73.70 11.98L73.70 11.98Q73.60 12.00 73.58 12.00L73.58 12.00L73.58 12.00Q73.40 12.00 73.40 11.84L73.40 11.84L73.40 11.84Q73.40 11.77 73.42 11.75L73.42 11.75L73.42 11.75Q73.43 11.72 73.51 11.68L73.51 11.68L73.51 11.68Q73.58 11.63 73.69 11.58L73.69 11.58L73.69 11.58Q73.79 11.54 74.02 11.40L74.02 11.40L74.02 11.40Q74.24 11.26 74.51 11.07L74.51 11.07L74.51 11.07Q74.91 10.78 75.25 10.32L75.25 10.32L75.25 10.32Q75.59 9.86 75.59 9.30L75.59 9.30L75.59 9.30Q75.59 8.86 75.20 8.52L75.20 8.52L75.20 8.52Q74.82 8.18 74.30 8.18L74.30 8.18L74.30 8.18Q73.85 8.18 73.56 8.40L73.56 8.40L73.56 8.40Q73.28 8.62 73.19 8.62L73.19 8.62L73.19 8.62Q73.04 8.62 73.04 8.48L73.04 8.48L73.04 8.48Q73.04 8.25 73.60 7.87L73.60 7.87L73.60 7.87Q74.16 7.50 74.77 7.50L74.77 7.50L74.77 7.50Q75.49 7.50 76.04 7.80L76.04 7.80L76.04 7.80Q76.59 8.11 76.59 8.81L76.59 8.81L76.59 8.81Q76.59 9.21 76.35 9.63L76.35 9.63L76.35 9.63Q76.10 10.04 75.82 10.30L75.82 10.30L75.82 10.30Q75.53 10.57 75.28 10.78L75.28 10.78L75.28 10.78Q75.04 10.99 75.04 11.05L75.04 11.05L75.04 11.05Q75.04 11.06 75.19 11.08L75.19 11.08L75.19 11.08Q75.33 11.10 75.60 11.16L75.60 11.16L75.60 11.16Q75.87 11.23 76.09 11.34L76.09 11.34L76.09 11.34Q77.10 11.84 77.10 12.85L77.10 12.85L77.10 12.85Q77.10 14.01 76.10 15.15L76.10 15.15L76.10 15.15Q75.11 16.30 73.84 16.30L73.84 16.30L73.84 16.30Q72.65 16.30 72.65 15.79L72.65 15.79L72.65 15.79Q72.65 15.68 72.65 15.51L72.65 15.51ZM85.15 13.33L85.15 13.33L85.15 13.33Q85.15 13.24 85.23 13.19L85.23 13.19L85.23 13.19Q85.30 13.13 85.54 13.03L85.54 13.03L85.54 13.03Q85.78 12.94 85.99 12.81L85.99 12.81L85.99 12.81Q87.56 11.87 88.28 10.95L88.28 10.95L88.28 10.95Q89.01 10.02 89.01 9.28L89.01 9.28L89.01 9.28Q89.01 8.68 88.54 8.32L88.54 8.32L88.54 8.32Q88.07 7.95 87.61 7.95L87.61 7.95L87.61 7.95Q86.79 7.95 86.79 8.60L86.79 8.60L86.79 8.60Q86.79 8.75 86.90 9.04L86.90 9.04L86.90 9.04Q87.01 9.34 87.01 9.42L87.01 9.42L87.01 9.42Q87.01 9.56 86.83 9.56L86.83 9.56L86.83 9.56Q86.48 9.56 86.16 9.40L86.16 9.40L86.16 9.40Q85.85 9.24 85.85 9.06L85.85 9.06L85.85 9.06Q85.85 8.89 85.96 8.65L85.96 8.65L85.96 8.65Q86.07 8.41 86.31 8.14L86.31 8.14L86.31 8.14Q86.55 7.87 87.05 7.69L87.05 7.69L87.05 7.69Q87.56 7.50 88.23 7.50L88.23 7.50L88.23 7.50Q89.05 7.50 89.58 7.90L89.58 7.90L89.58 7.90Q90.10 8.29 90.10 9.02L90.10 9.02L90.10 9.02Q90.10 9.62 89.55 10.33L89.55 10.33L89.55 10.33Q89.00 11.05 88.30 11.62L88.30 11.62L88.30 11.62Q87.44 12.32 87.44 12.43L87.44 12.43L87.44 12.43Q87.44 12.54 88.09 12.54L88.09 12.54L88.09 12.54Q89.49 12.54 90.08 12.36L90.08 12.36L90.08 12.36Q90.30 12.29 90.55 11.98L90.55 11.98L90.55 11.98Q90.79 11.66 90.85 11.66L90.85 11.66L90.85 11.66Q91.01 11.66 91.01 11.82L91.01 11.82L91.01 11.82Q91.01 11.86 90.66 12.52L90.66 12.52L90.66 12.52Q90.31 13.19 90.27 13.24L90.27 13.24L90.27 13.24Q90.06 13.48 89.98 13.50L89.98 13.50L89.98 13.50Q89.92 13.50 89.75 13.49L89.75 13.49L89.75 13.49Q89.59 13.48 89.01 13.47L89.01 13.47L89.01 13.47Q88.44 13.45 87.44 13.45L87.44 13.45L87.44 13.45Q86.53 13.45 86.05 13.46L86.05 13.46L86.05 13.46Q85.57 13.47 85.53 13.47L85.53 13.47L85.53 13.47Q85.15 13.47 85.15 13.33ZM98.57 13.27L98.57 13.27L98.57 13.27Q98.57 13.15 98.77 13.08L98.77 13.08L98.77 13.08Q98.97 13.02 99.20 13.01L99.20 13.01L99.20 13.01Q99.44 12.99 99.66 12.87L99.66 12.87L99.66 12.87Q99.88 12.75 99.92 12.52L99.92 12.52L99.92 12.52Q100.04 11.76 100.04 11.07L100.04 11.07L100.04 9.95L100.04 9.95Q100.04 9.80 100.05 9.56L100.05 9.56L100.05 9.56Q100.06 9.32 100.06 9.24L100.06 9.24L100.06 9.24Q100.06 8.37 99.87 8.18L99.87 8.18L99.87 8.18Q99.68 7.98 98.94 7.94L98.94 7.94L98.94 7.94Q98.69 7.94 98.69 7.73L98.69 7.73L98.69 7.73Q98.69 7.57 98.98 7.57L98.98 7.57L98.98 7.57Q99.01 7.57 99.39 7.62L99.39 7.62L99.39 7.62Q99.76 7.66 100.60 7.66L100.60 7.66L100.60 7.66Q101.16 7.66 101.56 7.62L101.56 7.62L101.56 7.62Q101.96 7.59 102.07 7.59L102.07 7.59L102.07 7.59Q102.23 7.59 102.31 7.66L102.31 7.66L102.31 7.66Q102.40 7.73 102.40 7.80L102.40 7.80L102.40 7.80Q102.40 7.88 102.35 7.93L102.35 7.93L102.35 7.93Q102.30 7.98 102.24 7.99L102.24 7.99L102.24 7.99Q102.19 8.01 102.08 8.02L102.08 8.02L102.08 8.02Q101.98 8.02 101.93 8.04L101.93 8.04L101.93 8.04Q101.86 8.05 101.70 8.07L101.70 8.07L101.70 8.07Q101.53 8.09 101.48 8.11L101.48 8.11L101.48 8.11Q101.43 8.12 101.33 8.20L101.33 8.20L101.33 8.20Q101.22 8.27 101.19 8.41L101.19 8.41L101.19 8.41Q101.16 8.54 101.13 8.78L101.13 8.78L101.13 8.78Q101.09 9.02 101.09 9.37L101.09 9.37L101.09 9.37Q101.09 9.45 101.09 9.67L101.09 9.67L101.09 9.67Q101.08 9.90 101.08 10.08L101.08 10.08L101.08 10.08Q101.08 10.22 101.07 10.79L101.07 10.79L101.07 10.79Q101.05 11.35 101.05 11.68L101.05 11.68L101.05 12.00L101.05 12.00Q101.05 12.36 101.11 12.59L101.11 12.59L101.11 12.59Q101.19 12.84 101.61 12.94L101.61 12.94L101.61 12.94Q102.02 13.05 102.40 13.10L102.40 13.10L102.40 13.10Q102.77 13.16 102.77 13.31L102.77 13.31L102.77 13.31Q102.77 13.44 102.69 13.47L102.69 13.47L102.69 13.47Q102.61 13.50 102.38 13.50L102.38 13.50L102.38 13.50Q102.19 13.50 101.55 13.46L101.55 13.46L101.55 13.46Q100.91 13.43 100.59 13.43L100.59 13.43L100.59 13.43Q100.27 13.43 99.70 13.46L99.70 13.46L99.70 13.46Q99.13 13.50 98.97 13.50L98.97 13.50L98.97 13.50Q98.57 13.50 98.57 13.27ZM110.46 13.33L110.46 13.33L110.46 13.33Q110.46 13.24 110.54 13.19L110.54 13.19L110.54 13.19Q110.61 13.13 110.85 13.03L110.85 13.03L110.85 13.03Q111.09 12.94 111.30 12.81L111.30 12.81L111.30 12.81Q112.87 11.87 113.60 10.95L113.60 10.95L113.60 10.95Q114.32 10.02 114.32 9.28L114.32 9.28L114.32 9.28Q114.32 8.68 113.86 8.32L113.86 8.32L113.86 8.32Q113.39 7.95 112.92 7.95L112.92 7.95L112.92 7.95Q112.10 7.95 112.10 8.60L112.10 8.60L112.10 8.60Q112.10 8.75 112.21 9.04L112.21 9.04L112.21 9.04Q112.32 9.34 112.32 9.42L112.32 9.42L112.32 9.42Q112.32 9.56 112.14 9.56L112.14 9.56L112.14 9.56Q111.79 9.56 111.48 9.40L111.48 9.40L111.48 9.40Q111.16 9.24 111.16 9.06L111.16 9.06L111.16 9.06Q111.16 8.89 111.27 8.65L111.27 8.65L111.27 8.65Q111.38 8.41 111.62 8.14L111.62 8.14L111.62 8.14Q111.86 7.87 112.36 7.69L112.36 7.69L112.36 7.69Q112.87 7.50 113.54 7.50L113.54 7.50L113.54 7.50Q114.37 7.50 114.89 7.90L114.89 7.90L114.89 7.90Q115.42 8.29 115.42 9.02L115.42 9.02L115.42 9.02Q115.42 9.62 114.86 10.33L114.86 10.33L114.86 10.33Q114.31 11.05 113.61 11.62L113.61 11.62L113.61 11.62Q112.76 12.32 112.76 12.43L112.76 12.43L112.76 12.43Q112.76 12.54 113.40 12.54L113.40 12.54L113.40 12.54Q114.80 12.54 115.39 12.36L115.39 12.36L115.39 12.36Q115.61 12.29 115.86 11.98L115.86 11.98L115.86 11.98Q116.10 11.66 116.16 11.66L116.16 11.66L116.16 11.66Q116.33 11.66 116.33 11.82L116.33 11.82L116.33 11.82Q116.33 11.86 115.98 12.52L115.98 12.52L115.98 12.52Q115.63 13.19 115.58 13.24L115.58 13.24L115.58 13.24Q115.37 13.48 115.29 13.50L115.29 13.50L115.29 13.50Q115.23 13.50 115.07 13.49L115.07 13.49L115.07 13.49Q114.90 13.48 114.32 13.47L114.32 13.47L114.32 13.47Q113.75 13.45 112.76 13.45L112.76 13.45L112.76 13.45Q111.85 13.45 111.36 13.46L111.36 13.46L111.36 13.46Q110.88 13.47 110.84 13.47L110.84 13.47L110.84 13.47Q110.46 13.47 110.46 13.33Z"></path></g></svg>