<svg data-v-423bf9ae="" xmlns="http://www.w3.org/2000/svg" viewBox="0 0 1222.5072255426792 60" class="font"><!----><!----><!----><g data-v-423bf9ae="" id="873830ad-133c-4317-b7f2-2fd8152e40f6" fill="white" transform="matrix(5.830903811703725,0,0,5.830903811703725,-2.2157525199228303,-26.064141118497787)"><path d="M9.44 4.68L9.16 4.96C9.16 4.96 8.55 6.72 8.41 7.03L6.51 12.10L4.65 7.14C4.52 6.80 3.92 4.96 3.92 4.96L3.65 4.66L2.87 4.66C2.59 4.68 0.94 4.61 0.94 4.61L0.87 5.36L2.02 5.53C2.04 5.73 2.07 6.34 2.07 6.58L1.71 12.70C1.67 12.94 1.51 13.51 1.47 13.69L0.38 13.92L0.45 14.62C0.45 14.62 1.68 14.55 1.95 14.55C3.04 14.55 3.75 14.62 3.75 14.62L3.85 13.79L2.72 13.69C2.70 13.47 2.65 12.67 2.65 12.28L2.98 6.37L6.05 14.55L6.55 14.55L9.62 6.37L10.00 12.28C10.00 12.67 9.94 13.48 9.93 13.69L8.83 13.92L8.90 14.62C8.90 14.62 10.30 14.55 10.57 14.55C11.69 14.55 12.61 14.62 12.61 14.62L12.70 13.79L11.56 13.69C11.52 13.51 11.38 12.94 11.34 12.70L10.86 6.58C10.86 6.34 10.88 5.70 10.91 5.53L12.03 5.43L11.97 4.61C11.97 4.61 10.92 4.68 9.80 4.68ZM22.23 13.79L21.36 13.65L20.82 12.46L17.93 4.54L17.12 4.68L14.62 12.31L14.01 13.69L13.13 13.93L13.19 14.62C13.19 14.62 14.56 14.55 15.08 14.55L16.28 14.55L16.35 13.79L15.37 13.65L15.51 12.77L15.96 11.30L19.04 11.30L19.33 12.14L19.71 13.65L18.69 13.93L18.75 14.62C18.75 14.62 20.31 14.55 20.75 14.55L22.16 14.55ZM17.44 6.75L18.76 10.54L16.21 10.60ZM23.20 11.86L22.99 14.01C22.99 14.01 24.19 14.76 26.07 14.76C27.92 14.76 29.41 13.86 29.41 12.00C29.41 8.82 24.57 8.99 24.57 6.79C24.57 5.75 25.30 5.24 26.17 5.24C26.80 5.24 27.24 5.29 27.83 5.54C27.92 5.87 28.01 6.20 28.01 6.33L28.01 6.94L28.84 7.03L29.04 4.91C28.14 4.69 27.12 4.47 26.21 4.47C24.47 4.47 23.17 5.38 23.17 7.06C23.17 10.08 27.94 9.87 27.94 12.17C27.94 13.30 27.22 13.92 26.10 13.92C25.41 13.92 24.77 13.73 24.28 13.54C24.21 13.23 24.12 12.78 24.12 12.61L24.12 11.94ZM39.35 13.79L38.49 13.65L37.94 12.46L35.06 4.54L34.24 4.68L31.74 12.31L31.14 13.69L30.25 13.93L30.31 14.62C30.31 14.62 31.68 14.55 32.20 14.55L33.40 14.55L33.47 13.79L32.49 13.65L32.63 12.77L33.08 11.30L36.16 11.30L36.46 12.14L36.83 13.65L35.81 13.93L35.87 14.62C35.87 14.62 37.44 14.55 37.87 14.55L39.28 14.55ZM34.57 6.75L35.88 10.54L33.33 10.60ZM49.78 4.61C49.78 4.61 48.71 4.68 47.60 4.68L46.45 4.65L46.37 5.49L47.47 5.57C47.52 5.82 47.60 6.51 47.60 6.73L47.60 12.26L43.93 7.13C43.72 6.82 42.57 4.96 42.57 4.96L42.29 4.66L41.68 4.68C41.40 4.68 40.05 4.61 40.05 4.61L39.98 5.36L41.10 5.53C41.13 5.74 41.23 6.37 41.23 6.59L41.23 12.63C41.23 12.87 41.13 13.51 41.10 13.69L40.00 13.92L40.07 14.62C40.07 14.62 41.30 14.55 41.58 14.55C42.70 14.55 43.30 14.62 43.30 14.62L43.40 13.79L42.27 13.69C42.24 13.50 42.17 12.80 42.17 12.21L42.17 6.76L47.68 14.64L48.52 14.64C48.52 14.64 48.54 10.95 48.54 10.39L48.54 7.15C48.54 6.59 48.69 5.84 48.75 5.57L49.85 5.35ZM61.17 12.17L60.34 12.19C60.34 12.19 60.34 12.71 60.31 12.85C60.31 12.99 60.21 13.31 60.12 13.64C59.53 13.82 58.79 13.94 58.21 13.94C56.21 13.94 55.23 12.03 55.23 9.60C55.23 7.18 56.21 5.28 58.23 5.28C58.76 5.28 59.44 5.42 59.99 5.60C60.07 5.88 60.16 6.17 60.16 6.30L60.16 6.96L60.98 7.01L61.12 4.94C60.24 4.72 59.37 4.47 58.23 4.47C55.29 4.47 53.79 6.57 53.79 9.62C53.79 12.67 55.29 14.76 58.23 14.76C59.36 14.76 60.37 14.50 61.25 14.28ZM71.09 9.62C71.09 6.57 69.54 4.47 66.50 4.47C63.46 4.47 61.91 6.57 61.91 9.62C61.91 12.66 63.46 14.76 66.50 14.76C69.54 14.76 71.09 12.66 71.09 9.62ZM63.41 9.62C63.41 7.17 64.41 5.21 66.50 5.21C68.59 5.21 69.59 7.17 69.59 9.62C69.59 12.05 68.59 14.01 66.50 14.01C64.41 14.01 63.41 12.05 63.41 9.62ZM82.05 4.61C82.05 4.61 80.98 4.68 79.87 4.68L78.72 4.65L78.64 5.49L79.74 5.57C79.79 5.82 79.87 6.51 79.87 6.73L79.87 12.26L76.20 7.13C75.99 6.82 74.84 4.96 74.84 4.96L74.56 4.66L73.95 4.68C73.67 4.68 72.32 4.61 72.32 4.61L72.25 5.36L73.37 5.53C73.40 5.74 73.50 6.37 73.50 6.59L73.50 12.63C73.50 12.87 73.40 13.51 73.37 13.69L72.27 13.92L72.34 14.62C72.34 14.62 73.57 14.55 73.85 14.55C74.97 14.55 75.57 14.62 75.57 14.62L75.67 13.79L74.54 13.69C74.51 13.50 74.44 12.80 74.44 12.21L74.44 6.76L79.95 14.64L80.79 14.64C80.79 14.64 80.81 10.95 80.81 10.39L80.81 7.15C80.81 6.59 80.96 5.84 81.02 5.57L82.12 5.35ZM83.24 11.86L83.03 14.01C83.03 14.01 84.24 14.76 86.11 14.76C87.96 14.76 89.46 13.86 89.46 12.00C89.46 8.82 84.62 8.99 84.62 6.79C84.62 5.75 85.34 5.24 86.21 5.24C86.84 5.24 87.29 5.29 87.88 5.54C87.96 5.87 88.06 6.20 88.06 6.33L88.06 6.94L88.89 7.03L89.08 4.91C88.19 4.69 87.16 4.47 86.25 4.47C84.52 4.47 83.22 5.38 83.22 7.06C83.22 10.08 87.99 9.87 87.99 12.17C87.99 13.30 87.26 13.92 86.14 13.92C85.46 13.92 84.81 13.73 84.32 13.54C84.25 13.23 84.17 12.78 84.17 12.61L84.17 11.94ZM98.35 6.80L98.25 4.79L97.99 4.54C97.99 4.54 96.67 4.68 96.39 4.68L92.26 4.68C91.98 4.68 90.66 4.54 90.66 4.54L90.40 4.79L90.30 6.80L91.11 6.87C91.14 6.65 91.21 6.22 91.27 6.01C91.28 5.91 91.41 5.71 91.55 5.53C91.85 5.50 92.29 5.46 92.68 5.46L93.56 5.46C93.59 5.73 93.69 6.38 93.69 6.59L93.69 12.63C93.69 12.87 93.59 13.51 93.56 13.69L92.46 13.92L92.53 14.62C92.53 14.62 93.90 14.55 94.18 14.55C95.30 14.55 96.22 14.62 96.22 14.62L96.32 13.79L95.06 13.69C95.03 13.50 94.96 12.80 94.96 12.21L94.96 7.01C94.96 6.48 95.03 5.74 95.06 5.46L95.97 5.46C96.36 5.46 96.80 5.50 97.10 5.53C97.24 5.71 97.37 5.91 97.38 6.01C97.44 6.22 97.51 6.65 97.54 6.87ZM103.14 4.54C102.49 4.54 101.33 4.65 100.58 4.68C100.11 4.65 99.18 4.61 99.18 4.61L99.11 5.36L100.18 5.53C100.21 5.73 100.31 6.37 100.31 6.59L100.31 12.63C100.31 12.87 100.21 13.51 100.18 13.69L99.08 13.92L99.15 14.62C99.15 14.62 100.52 14.55 100.80 14.55C101.92 14.55 102.84 14.62 102.84 14.62L102.94 13.79L101.68 13.69C101.65 13.50 101.58 12.80 101.58 12.21L101.58 10.32C101.96 10.33 102.41 10.33 102.82 10.33L102.91 10.33L104.29 12.92C104.47 13.26 105.06 14.55 105.06 14.55C106.18 14.55 107.27 14.62 107.27 14.62L107.37 13.79L106.36 13.69C106.13 13.38 105.80 12.92 105.67 12.71C105.59 12.60 104.87 11.44 104.19 10.12C105.38 9.73 106.23 8.81 106.23 7.43C106.23 5.50 105.06 4.54 103.14 4.54ZM102.55 5.24C103.99 5.24 104.92 5.98 104.92 7.45C104.92 8.92 103.98 9.63 102.54 9.63C102.28 9.63 101.93 9.60 101.58 9.58L101.58 7.01C101.58 6.40 101.64 5.67 101.70 5.32C102.05 5.28 102.38 5.24 102.55 5.24ZM117.39 4.61C117.39 4.61 116.68 4.68 115.56 4.68C115.28 4.68 114.07 4.61 114.07 4.61L114.00 5.36L115.09 5.53C115.12 5.73 115.23 6.43 115.23 6.66L115.23 10.82C115.23 12.59 114.42 13.86 112.74 13.86C111.13 13.86 110.33 12.60 110.33 10.82L110.33 7.08C110.33 6.48 110.40 5.74 110.43 5.53L111.54 5.43L111.48 4.61C111.48 4.61 110.59 4.68 109.47 4.68C109.19 4.68 107.84 4.61 107.84 4.61L107.77 5.36L108.88 5.53C108.91 5.74 109.00 6.43 109.00 6.66L109.00 10.82C109.00 13.22 110.22 14.76 112.62 14.76C115.01 14.76 116.24 13.22 116.24 10.82L116.24 7.08C116.24 6.48 116.31 5.74 116.34 5.53L117.45 5.43ZM125.68 12.17L124.85 12.19C124.85 12.19 124.85 12.71 124.82 12.85C124.82 12.99 124.73 13.31 124.63 13.64C124.04 13.82 123.30 13.94 122.72 13.94C120.72 13.94 119.74 12.03 119.74 9.60C119.74 7.18 120.72 5.28 122.74 5.28C123.27 5.28 123.96 5.42 124.50 5.60C124.59 5.88 124.67 6.17 124.67 6.30L124.67 6.96L125.50 7.01L125.64 4.94C124.75 4.72 123.89 4.47 122.74 4.47C119.80 4.47 118.30 6.57 118.30 9.62C118.30 12.67 119.80 14.76 122.74 14.76C123.87 14.76 124.88 14.50 125.76 14.28ZM134.44 6.80L134.34 4.79L134.08 4.54C134.08 4.54 132.76 4.68 132.48 4.68L128.35 4.68C128.07 4.68 126.76 4.54 126.76 4.54L126.49 4.79L126.39 6.80L127.20 6.87C127.23 6.65 127.30 6.22 127.36 6.01C127.37 5.91 127.50 5.71 127.64 5.53C127.95 5.50 128.38 5.46 128.77 5.46L129.65 5.46C129.68 5.73 129.78 6.38 129.78 6.59L129.78 12.63C129.78 12.87 129.68 13.51 129.65 13.69L128.55 13.92L128.62 14.62C128.62 14.62 129.99 14.55 130.27 14.55C131.39 14.55 132.31 14.62 132.31 14.62L132.41 13.79L131.15 13.69C131.12 13.50 131.05 12.80 131.05 12.21L131.05 7.01C131.05 6.48 131.12 5.74 131.15 5.46L132.06 5.46C132.45 5.46 132.89 5.50 133.20 5.53C133.34 5.71 133.46 5.91 133.48 6.01C133.53 6.22 133.60 6.65 133.63 6.87ZM138.89 4.61C138.89 4.61 138.10 4.68 136.98 4.68C136.70 4.68 135.35 4.61 135.35 4.61L135.28 5.36L136.36 5.53C136.39 5.71 136.49 6.36 136.49 6.59L136.49 12.63C136.49 12.87 136.39 13.51 136.36 13.69L135.25 13.92L135.32 14.62C135.32 14.62 136.70 14.55 136.98 14.55C138.10 14.55 139.02 14.62 139.02 14.62L139.12 13.79L137.86 13.69C137.83 13.50 137.76 12.80 137.76 12.21L137.76 7.01C137.76 6.43 137.83 5.73 137.86 5.53L138.95 5.43ZM149.44 9.62C149.44 6.57 147.88 4.47 144.84 4.47C141.81 4.47 140.25 6.57 140.25 9.62C140.25 12.66 141.81 14.76 144.84 14.76C147.88 14.76 149.44 12.66 149.44 9.62ZM141.75 9.62C141.75 7.17 142.76 5.21 144.84 5.21C146.93 5.21 147.94 7.17 147.94 9.62C147.94 12.05 146.93 14.01 144.84 14.01C142.76 14.01 141.75 12.05 141.75 9.62ZM160.40 4.61C160.40 4.61 159.32 4.68 158.21 4.68L157.07 4.65L156.98 5.49L158.09 5.57C158.13 5.82 158.21 6.51 158.21 6.73L158.21 12.26L154.55 7.13C154.34 6.82 153.19 4.96 153.19 4.96L152.91 4.66L152.29 4.68C152.01 4.68 150.67 4.61 150.67 4.61L150.60 5.36L151.72 5.53C151.75 5.74 151.84 6.37 151.84 6.59L151.84 12.63C151.84 12.87 151.75 13.51 151.72 13.69L150.61 13.92L150.68 14.62C150.68 14.62 151.91 14.55 152.19 14.55C153.31 14.55 153.92 14.62 153.92 14.62L154.01 13.79L152.88 13.69C152.85 13.50 152.78 12.80 152.78 12.21L152.78 6.76L158.30 14.64L159.14 14.64C159.14 14.64 159.15 10.95 159.15 10.39L159.15 7.15C159.15 6.59 159.31 5.84 159.36 5.57L160.47 5.35ZM171.78 12.17L170.95 12.19C170.95 12.19 170.95 12.71 170.93 12.85C170.93 12.99 170.83 13.31 170.73 13.64C170.14 13.82 169.40 13.94 168.83 13.94C166.82 13.94 165.84 12.03 165.84 9.60C165.84 7.18 166.82 5.28 168.84 5.28C169.37 5.28 170.06 5.42 170.60 5.60C170.69 5.88 170.77 6.17 170.77 6.30L170.77 6.96L171.60 7.01L171.74 4.94C170.86 4.72 169.99 4.47 168.84 4.47C165.90 4.47 164.40 6.57 164.40 9.62C164.40 12.67 165.90 14.76 168.84 14.76C169.97 14.76 170.98 14.50 171.86 14.28ZM181.71 9.62C181.71 6.57 180.15 4.47 177.11 4.47C174.08 4.47 172.52 6.57 172.52 9.62C172.52 12.66 174.08 14.76 177.11 14.76C180.15 14.76 181.71 12.66 181.71 9.62ZM174.02 9.62C174.02 7.17 175.03 5.21 177.11 5.21C179.20 5.21 180.21 7.17 180.21 9.62C180.21 12.05 179.20 14.01 177.11 14.01C175.03 14.01 174.02 12.05 174.02 9.62ZM189.66 4.61C189.66 4.61 188.86 4.68 187.74 4.68C187.46 4.68 186.12 4.61 186.12 4.61L186.05 5.36L187.12 5.53C187.15 5.71 187.25 6.36 187.25 6.59L187.25 12.63C187.25 12.87 187.15 13.51 187.12 13.69L186.02 13.92L186.09 14.62C186.09 14.62 187.46 14.55 187.74 14.55L190.69 14.55C190.97 14.55 192.29 14.60 192.29 14.60L192.56 14.35L192.77 12.24L192.00 12.17C191.97 12.39 191.84 12.89 191.79 13.10C191.77 13.20 191.63 13.43 191.49 13.62C191.18 13.68 190.71 13.75 190.27 13.75L188.62 13.75C188.59 13.54 188.52 12.78 188.52 12.21L188.52 7.01C188.52 6.43 188.59 5.73 188.62 5.53L189.71 5.43ZM200.40 6.80L200.30 4.79L200.03 4.54C200.03 4.54 198.72 4.68 198.44 4.68L194.31 4.68C194.03 4.68 192.71 4.54 192.71 4.54L192.44 4.79L192.35 6.80L193.16 6.87C193.19 6.65 193.26 6.22 193.31 6.01C193.33 5.91 193.45 5.71 193.59 5.53C193.90 5.50 194.33 5.46 194.73 5.46L195.61 5.46C195.64 5.73 195.73 6.38 195.73 6.59L195.73 12.63C195.73 12.87 195.64 13.51 195.61 13.69L194.50 13.92L194.57 14.62C194.57 14.62 195.94 14.55 196.22 14.55C197.34 14.55 198.27 14.62 198.27 14.62L198.37 13.79L197.11 13.69C197.08 13.50 197.01 12.80 197.01 12.21L197.01 7.01C197.01 6.48 197.08 5.74 197.11 5.46L198.02 5.46C198.41 5.46 198.84 5.50 199.15 5.53C199.29 5.71 199.42 5.91 199.43 6.01C199.49 6.22 199.56 6.65 199.58 6.87ZM205.21 4.54C204.29 4.54 203.49 4.65 202.59 4.68C202.12 4.65 201.22 4.61 201.22 4.61L201.15 5.36L202.23 5.53C202.26 5.71 202.36 6.36 202.36 6.59L202.36 12.63C202.36 12.87 202.26 13.51 202.23 13.69L201.12 13.92L201.19 14.62C201.19 14.62 202.55 14.55 202.85 14.55C203.69 14.55 204.65 14.63 205.21 14.63C208.24 14.63 210.04 12.60 210.04 9.62C210.04 6.50 208.33 4.54 205.21 4.54ZM205.23 5.38C207.56 5.38 208.66 7.28 208.66 9.62C208.66 11.93 207.56 13.80 205.23 13.80C204.61 13.80 204.09 13.78 203.73 13.75C203.71 13.69 203.63 12.88 203.63 12.21L203.63 7.01C203.63 6.45 203.70 5.71 203.73 5.45C204.08 5.40 204.58 5.38 205.23 5.38Z"></path></g><!----><!----></svg>